<svg width="127" height="40" viewBox="0 0 127 40" fill="none" xmlns="http://www.w3.org/2000/svg">
<g clip-path="url(#clip0_5375_47516)">
<path d="M20.6719 26.0489H5.16552C5.6115 29.1977 7.63066 31.0099 10.7378 31.0099C12.9579 31.0099 14.6144 30.0633 15.3005 28.4128H20.3876C19.5398 32.6651 15.624 35.5 10.4977 35.5C4.23925 35.4952 0 31.1621 0 24.6695C0 18.1769 4.16084 13.8438 10.3359 13.8438C16.511 13.8438 20.6719 18.1721 20.6719 24.6695V26.0489ZM5.20963 22.9762H15.423C14.9379 20.0272 13.1196 18.3339 10.3359 18.3339C7.55224 18.3339 5.69481 20.0272 5.20963 22.9762Z" fill="#1F1F1F"/>
<path d="M35.4375 14.8281V20.5148H32.584C30.2054 20.5148 29.5486 21.7059 29.5486 24.9671V35.5H24.6094V14.8281H29.2513V18.3679H29.6551C30.1654 16.221 31.8474 14.8281 33.9686 14.8281H35.4331H35.4375Z" fill="#1F1F1F"/>
<path d="M56.1044 22.1551V34.9101H50.8796V32.0365H50.4732C49.1248 34.244 46.8396 35.5 43.7365 35.5C39.7757 35.5 37.4062 33.5304 37.4062 29.948C37.4062 25.2999 41.4066 23.0163 50.5971 22.9021V21.9553C50.5971 19.6717 49.2488 18.3729 46.9635 18.3729C44.9609 18.3729 43.5332 19.3577 43.3696 21.2084H37.8127C38.5067 16.3652 42.2245 13.8438 47.37 13.8438C53.0062 13.8438 56.1094 16.8743 56.1094 22.1504L56.1044 22.1551ZM50.5921 25.9754V25.7376C45.1195 25.8184 42.6707 26.8794 42.6707 29.044C42.6707 30.4998 43.7761 31.2896 45.7342 31.2896C48.7977 31.2896 50.5921 29.32 50.5921 25.9754Z" fill="#1F1F1F"/>
<path d="M80.7139 24.4721C80.7139 31.0859 76.996 35.5 71.8365 35.5C68.8369 35.5 66.677 34.0561 65.5995 31.8515H65.1238V34.8992H60.0469V4.98438H65.4442V16.5307H65.9247C67.0847 14.6459 69.0844 13.4442 71.8413 13.4442C77.0008 13.4442 80.7188 17.8535 80.7188 24.4721H80.7139ZM75.1952 24.4721C75.1952 20.9011 73.2344 18.5366 70.3173 18.5366C67.4002 18.5366 65.4393 20.9011 65.4393 24.4721C65.4393 28.0431 67.4002 30.4076 70.3173 30.4076C73.2344 30.4076 75.1952 28.0431 75.1952 24.4721Z" fill="#1F1F1F"/>
<path d="M84.6562 30.4635V4.98438H90.092V29.648C90.092 30.3004 90.4144 30.6315 91.059 30.6315H93.5156V35.5H89.5694C86.2289 35.5 84.6611 33.9035 84.6611 30.4684L84.6562 30.4635Z" fill="#1F1F1F"/>
<path d="M116.156 26.0468H100.655C101.096 29.1963 103.115 31.0089 106.227 31.0089C108.447 31.0089 110.104 30.0622 110.785 28.4113H115.872C115.024 32.6645 111.108 35.5 105.977 35.5C99.7187 35.5 95.4844 31.1659 95.4844 24.6719C95.4844 18.1779 99.6403 13.8438 105.82 13.8438C112 13.8438 116.156 18.1731 116.156 24.6719V26.0516V26.0468ZM100.694 22.9734H110.907C110.422 20.0238 108.609 18.3301 105.82 18.3301C103.032 18.3301 101.174 20.0238 100.694 22.9734Z" fill="#1F1F1F"/>
<path d="M120.586 14.8281C117.602 14.8281 115.172 12.3983 115.172 9.41406C115.172 6.42982 117.602 4 120.586 4C123.57 4 126 6.42982 126 9.41406C126 12.3983 123.57 14.8281 120.586 14.8281ZM120.586 6.73837C119.111 6.73837 117.91 7.93881 117.91 9.41406C117.91 10.8893 119.111 12.0898 120.586 12.0898C122.061 12.0898 123.262 10.8893 123.262 9.41406C123.262 7.93881 122.061 6.73837 120.586 6.73837Z" fill="#1F1F1F"/>
</g>
<defs>
<clipPath id="clip0_5375_47516">
<rect width="126.297" height="40" fill="white"/>
</clipPath>
</defs>
</svg>
