<svg width="95" height="42" viewBox="0 0 95 42" fill="none" xmlns="http://www.w3.org/2000/svg">
<path d="M86.0205 1H9.54872C4.82739 1 1 4.82739 1 9.54872V32.4513C1 37.1726 4.82739 41 9.54872 41H86.0205C90.7418 41 94.5692 37.1726 94.5692 32.4513V9.54872C94.5692 4.82739 90.7418 1 86.0205 1Z" fill="#FFFAA0"/>
<path d="M24.4297 24.4214H15.9763C16.2195 26.1903 17.3171 27.208 19.014 27.208C20.2244 27.208 21.1273 26.6768 21.5029 25.7466H24.2759C23.8147 28.1323 21.678 29.7261 18.8855 29.7261C15.4723 29.7261 13.1605 27.2937 13.1605 23.643C13.1605 19.9923 15.4275 17.5637 18.7941 17.5637C22.1606 17.5637 24.4277 19.9962 24.4277 23.643V24.4214H24.4297ZM15.9977 22.6953H21.5671C21.3025 21.0373 20.3119 20.0877 18.7941 20.0877C17.2762 20.0877 16.2624 21.0373 15.9977 22.6953Z" fill="#1F1F1F"/>
<path d="M32.8379 17.8979V21.0602H31.1215C29.6912 21.0602 29.2942 21.7238 29.2942 23.5355V29.393H26.3227V17.894H29.1192V19.8615H29.3623C29.6698 18.6686 30.6817 17.894 31.9603 17.894H32.8398L32.8379 17.8979Z" fill="#1F1F1F"/>
<path d="M43.8756 22.2302V29.3954H41.058V27.7802H40.84C40.1142 29.0198 38.8805 29.7261 37.2087 29.7261C35.0739 29.7261 33.7956 28.6188 33.7956 26.6087C33.7956 23.9971 35.9517 22.7186 40.9041 22.6505V22.1193C40.9041 20.8369 40.1783 20.1071 38.9446 20.1071C37.8664 20.1071 37.0959 20.6598 37.0083 21.6989H34.0155C34.3911 18.9804 36.3933 17.5637 39.1663 17.5637C42.2041 17.5637 43.8777 19.2665 43.8777 22.2282L43.8756 22.2302ZM40.9041 24.3766V24.2443C37.9561 24.2871 36.6327 24.8865 36.6327 26.1008C36.6327 26.9181 37.2263 27.3618 38.285 27.3618C39.937 27.3618 40.9041 26.2545 40.9041 24.3766Z" fill="#1F1F1F"/>
<path d="M57.1534 23.6486C57.1534 27.2954 55.1062 29.7318 52.267 29.7318C50.6168 29.7318 49.428 28.9357 48.8325 27.7197H48.5697V29.399H45.7734V12.9028H48.7428V19.2721H49.0075C49.6439 18.2329 50.7453 17.5693 52.2633 17.5693C55.1062 17.5674 57.1515 19.9998 57.1515 23.6486H57.1534ZM54.1157 23.6486C54.1157 21.6812 53.0358 20.3774 51.4303 20.3774C49.825 20.3774 48.7449 21.6812 48.7449 23.6486C48.7449 25.616 49.825 26.9198 51.4303 26.9198C53.0358 26.9198 54.1157 25.616 54.1157 23.6486Z" fill="#1F1F1F"/>
<path d="M59.0504 26.6765V12.9028H62.0218V26.2348C62.0218 26.589 62.1971 26.7661 62.5492 26.7661H63.8937V29.399H61.7376C59.9103 29.3971 59.0522 28.535 59.0522 26.6785L59.0504 26.6765Z" fill="#1F1F1F"/>
<path d="M76.1091 24.4214H67.6558C67.8951 26.1903 68.9966 27.208 70.6935 27.208C71.9039 27.208 72.8069 26.6768 73.1804 25.7466H75.9555C75.4904 28.1323 73.3575 29.7261 70.5613 29.7261C67.1479 29.7261 64.84 27.2937 64.84 23.643C64.84 19.9923 67.1052 17.5637 70.4736 17.5637C73.8421 17.5637 76.1072 19.9962 76.1072 23.643V24.4214H76.1091ZM67.6793 22.6972H73.2466C72.9819 21.0393 71.9934 20.0896 70.4736 20.0896C68.9538 20.0896 67.9419 21.0393 67.6793 22.6972Z" fill="#1F1F1F"/>
<path d="M79.4094 18.2657C77.7555 18.2657 76.4106 16.9191 76.4106 15.267C76.4106 13.6148 77.7573 12.2682 79.4094 12.2682C81.0617 12.2682 82.4081 13.6148 82.4081 15.267C82.4081 16.9191 81.0636 18.2657 79.4094 18.2657ZM79.4094 13.7822C78.5922 13.7822 77.9267 14.4458 77.9267 15.265C77.9267 16.0843 78.5903 16.7479 79.4094 16.7479C80.2287 16.7479 80.8923 16.0843 80.8923 15.265C80.8923 14.4458 80.2287 13.7822 79.4094 13.7822Z" fill="#1F1F1F"/>
<path d="M86.0205 1.40076H9.5487C5.04868 1.40076 1.4007 5.04874 1.4007 9.54876V32.4513C1.4007 36.9513 5.04868 40.5993 9.5487 40.5993H86.0205C90.5205 40.5993 94.1685 36.9513 94.1685 32.4513V9.54876C94.1685 5.04874 90.5205 1.40076 86.0205 1.40076Z" stroke="#1F1F1F" stroke-width="1.5"/>
</svg>
