<svg width="94" height="40" viewBox="0 0 94 40" fill="none" xmlns="http://www.w3.org/2000/svg">
<path d="M85.0205 0H8.54872C3.82739 0 0 3.82739 0 8.54872V31.4513C0 36.1726 3.82739 40 8.54872 40H85.0205C89.7418 40 93.5692 36.1726 93.5692 31.4513V8.54872C93.5692 3.82739 89.7418 0 85.0205 0Z" fill="#FFFAA0"/>
<path d="M23.4293 23.4216H14.976C15.2192 25.1905 16.3168 26.2083 18.0137 26.2083C19.2241 26.2083 20.127 25.677 20.5026 24.7468H23.2756C22.8144 27.1325 20.6777 28.7263 17.8852 28.7263C14.472 28.7263 12.1602 26.2939 12.1602 22.6432C12.1602 18.9925 14.4272 16.564 17.7938 16.564C21.1603 16.564 23.4274 18.9964 23.4274 22.6432V23.4216H23.4293ZM14.9974 21.6955H20.5668C20.3022 20.0375 19.3116 19.0879 17.7938 19.0879C16.2759 19.0879 15.2621 20.0375 14.9974 21.6955Z" fill="#1F1F1F"/>
<path d="M31.8375 16.8979V20.0602H30.121C28.6907 20.0602 28.2937 20.7238 28.2937 22.5355V28.393H25.3223V16.894H28.1188V18.8615H28.3619C28.6694 17.6686 29.6813 16.894 30.9599 16.894H31.8393L31.8375 16.8979Z" fill="#1F1F1F"/>
<path d="M42.8749 21.2304V28.3956H40.0573V26.7804H39.8393C39.1135 28.02 37.8798 28.7263 36.208 28.7263C34.0732 28.7263 32.7949 27.619 32.7949 25.6089C32.7949 22.9974 34.9511 21.7189 39.9035 21.6508V21.1195C39.9035 19.8371 39.1776 19.1074 37.9439 19.1074C36.8657 19.1074 36.0953 19.66 36.0076 20.6992H33.0148C33.3904 17.9806 35.3927 16.564 38.1657 16.564C41.2034 16.564 42.8771 18.2667 42.8771 21.2285L42.8749 21.2304ZM39.9035 23.3769V23.2445C36.9555 23.2873 35.632 23.8867 35.632 25.101C35.632 25.9183 36.2256 26.362 37.2843 26.362C38.9364 26.362 39.9035 25.2548 39.9035 23.3769Z" fill="#1F1F1F"/>
<path d="M56.1534 22.6486C56.1534 26.2954 54.1062 28.7318 51.267 28.7318C49.6168 28.7318 48.428 27.9357 47.8325 26.7197H47.5697V28.399H44.7734V11.9028H47.7428V18.2721H48.0075C48.6439 17.2329 49.7453 16.5693 51.2633 16.5693C54.1062 16.5674 56.1515 18.9998 56.1515 22.6486H56.1534ZM53.1157 22.6486C53.1157 20.6812 52.0358 19.3774 50.4303 19.3774C48.825 19.3774 47.7449 20.6812 47.7449 22.6486C47.7449 24.616 48.825 25.9198 50.4303 25.9198C52.0358 25.9198 53.1157 24.616 53.1157 22.6486Z" fill="#1F1F1F"/>
<path d="M58.0508 25.6765V11.9028H61.0223V25.2348C61.0223 25.589 61.1975 25.7661 61.5496 25.7661H62.8942V28.399H60.738C58.9107 28.3971 58.0527 27.535 58.0527 25.6785L58.0508 25.6765Z" fill="#1F1F1F"/>
<path d="M75.1089 23.4216H66.6556C66.8949 25.1905 67.9964 26.2083 69.6933 26.2083C70.9038 26.2083 71.8067 25.677 72.1802 24.7468H74.9553C74.4902 27.1325 72.3573 28.7263 69.5611 28.7263C66.1477 28.7263 63.8398 26.2939 63.8398 22.6432C63.8398 18.9925 66.105 16.564 69.4735 16.564C72.8419 16.564 75.1071 18.9964 75.1071 22.6432V23.4216H75.1089ZM66.6791 21.6975H72.2464C71.9817 20.0395 70.9933 19.0898 69.4735 19.0898C67.9537 19.0898 66.9417 20.0395 66.6791 21.6975Z" fill="#1F1F1F"/>
<path d="M78.4089 17.2656C76.755 17.2656 75.4102 15.919 75.4102 14.2669C75.4102 12.6147 76.7568 11.2681 78.4089 11.2681C80.0612 11.2681 81.4076 12.6147 81.4076 14.2669C81.4076 15.919 80.0631 17.2656 78.4089 17.2656ZM78.4089 12.782C77.5917 12.782 76.9262 13.4456 76.9262 14.2649C76.9262 15.0842 77.5898 15.7477 78.4089 15.7477C79.2282 15.7477 79.8918 15.0842 79.8918 14.2649C79.8918 13.4456 79.2282 12.782 78.4089 12.782Z" fill="#1F1F1F"/>
</svg>
