<svg width="41" height="40" viewBox="0 0 41 40" fill="none" xmlns="http://www.w3.org/2000/svg">
<path d="M20.7139 39.8449C31.6036 39.8449 40.4315 31.017 40.4315 20.1273C40.4315 9.23755 31.6036 0.409668 20.7139 0.409668C9.82416 0.409668 0.996277 9.23755 0.996277 20.1273C0.996277 31.017 9.82416 39.8449 20.7139 39.8449Z" fill="url(#paint0_linear_5842_13)"/>
<path d="M20.7139 37.9117C30.5359 37.9117 38.4983 29.9493 38.4983 20.1273C38.4983 10.3052 30.5359 2.3429 20.7139 2.3429C10.8918 2.3429 2.9295 10.3052 2.9295 20.1273C2.9295 29.9493 10.8918 37.9117 20.7139 37.9117Z" fill="#0E0E23"/>
<path d="M19.5364 30.1588C18.6384 30.1588 17.8165 29.6478 17.4213 28.8408L12.2368 18.2916C11.6629 17.1224 12.1442 15.7101 13.3134 15.1362C14.4826 14.5624 15.8949 15.0436 16.4687 16.2128L19.5364 22.4573L22.6041 16.2128C23.178 15.0436 24.5903 14.5624 25.7595 15.1362C26.9287 15.7101 27.4099 17.1224 26.8361 18.2916L21.6516 28.8408C21.2547 29.6478 20.4344 30.1588 19.5364 30.1588Z" fill="url(#paint1_linear_5842_13)"/>
<path d="M22.5992 24.9231C21.8914 24.9314 21.1604 24.5593 20.871 24.3261C20.231 23.8118 20.1119 23.5042 19.5364 22.4574L24.9624 11.4153C25.5362 10.2461 26.9485 9.76488 28.1177 10.3387C29.2869 10.9126 29.7682 12.3249 29.1943 13.4941L24.2165 23.6249C23.8064 24.4584 23.4492 24.9281 22.6008 24.9231H22.5992Z" fill="url(#paint2_linear_5842_13)"/>
<defs>
<linearGradient id="paint0_linear_5842_13" x1="4.11524" y1="30.9048" x2="37.1951" y2="9.42755" gradientUnits="userSpaceOnUse">
<stop stop-color="#2A4AFF"/>
<stop offset="0.08" stop-color="#285EFC"/>
<stop offset="0.24" stop-color="#2593F5"/>
<stop offset="0.46" stop-color="#20E9EA"/>
<stop offset="0.47" stop-color="#20EDEA"/>
<stop offset="0.52" stop-color="#2AE4E9"/>
<stop offset="0.61" stop-color="#45CBE9"/>
<stop offset="0.72" stop-color="#72A4E9"/>
<stop offset="0.85" stop-color="#B16EE8"/>
<stop offset="1" stop-color="#FF2AE8"/>
</linearGradient>
<linearGradient id="paint1_linear_5842_13" x1="23.8841" y1="24.0846" x2="14.9589" y2="16.1648" gradientUnits="userSpaceOnUse">
<stop stop-color="#20EDEA"/>
<stop offset="0.42" stop-color="#428AF9"/>
<stop offset="0.98" stop-color="#2A4AFF"/>
</linearGradient>
<linearGradient id="paint2_linear_5842_13" x1="21.2795" y1="24.0317" x2="28.0235" y2="10.7588" gradientUnits="userSpaceOnUse">
<stop stop-color="#3A003F"/>
<stop offset="0.09" stop-color="#660965"/>
<stop offset="0.19" stop-color="#8F1287"/>
<stop offset="0.29" stop-color="#B119A5"/>
<stop offset="0.4" stop-color="#CD1FBD"/>
<stop offset="0.51" stop-color="#E324D0"/>
<stop offset="0.64" stop-color="#F327DD"/>
<stop offset="0.79" stop-color="#FC29E5"/>
<stop offset="1" stop-color="#FF2AE8"/>
</linearGradient>
</defs>
</svg>
