<svg width="142" height="40" viewBox="0 0 142 40" fill="none" xmlns="http://www.w3.org/2000/svg">
<path d="M60.8669 11.4104H59.82C59.739 11.4104 59.6662 11.4584 59.6348 11.5328L53.0331 26.8895L46.4313 11.5328C46.3999 11.4584 46.3271 11.4104 46.2461 11.4104H45.1761C45.1083 11.4104 45.0455 11.4451 45.0074 11.5014C44.9694 11.5576 44.9644 11.6303 44.9909 11.6915L52.3137 28.7202C52.3451 28.7946 52.4179 28.8425 52.4989 28.8425H53.5457C53.6268 28.8425 53.6995 28.7946 53.7309 28.7202L61.0537 11.6915C61.0802 11.6287 61.0736 11.5576 61.0372 11.5014C60.9992 11.4451 60.9363 11.4104 60.8685 11.4104H60.8669Z" fill="white"/>
<path d="M74.9767 27.4667H63.1044C62.993 27.4667 62.9026 27.557 62.9026 27.6684V28.6425C62.9026 28.7539 62.993 28.8442 63.1044 28.8442H74.9767C75.0881 28.8442 75.1784 28.7539 75.1784 28.6425V27.6684C75.1784 27.557 75.0881 27.4667 74.9767 27.4667Z" fill="white"/>
<path d="M74.7336 11.4104H63.1044C62.993 11.4104 62.9026 11.5007 62.9026 11.6122V12.5862C62.9026 12.6976 62.993 12.788 63.1044 12.788H74.7336C74.845 12.788 74.9353 12.6976 74.9353 12.5862V11.6122C74.9353 11.5007 74.845 11.4104 74.7336 11.4104Z" fill="white"/>
<path d="M73.2733 19.4393H63.1044C62.993 19.4393 62.9026 19.5297 62.9026 19.6411V20.6151C62.9026 20.7266 62.993 20.8169 63.1044 20.8169H73.2733C73.3847 20.8169 73.475 20.7266 73.475 20.6151V19.6411C73.475 19.5297 73.3847 19.4393 73.2733 19.4393Z" fill="white"/>
<path d="M89.4651 28.363C89.2501 27.8355 88.7887 26.7771 88.0909 25.2143C87.3847 23.6333 86.8075 22.4856 86.3743 21.8059C86.0584 21.3114 85.7525 20.9327 85.4482 20.6615C86.3379 20.468 87.0887 20.0496 87.689 19.4146C88.3951 18.6654 88.754 17.5624 88.754 16.1385C88.754 14.4418 88.2513 13.2081 87.259 12.4705C86.2717 11.7677 84.9223 11.4121 83.2503 11.4121H78.1171C78.0063 11.4121 77.9153 11.5031 77.9153 11.6139V12.5863C77.9153 12.6971 78.0063 12.788 78.1171 12.788H83.2503C84.6114 12.788 85.6565 13.041 86.3561 13.5405C87.0341 14.025 87.3781 14.8982 87.3781 16.1369C87.3781 17.3755 87.0424 18.2024 86.3776 18.6869C85.6946 19.1864 84.6825 19.4394 83.3711 19.4394H78.1154C78.0046 19.4394 77.9137 19.5304 77.9137 19.6412V20.6136C77.9137 20.7244 78.0046 20.8153 78.1154 20.8153H82.2019C83.0602 20.8153 83.7795 21.0353 84.3418 21.4669C84.9124 21.9068 85.645 23.1206 86.5181 25.0754C87.4095 27.0698 87.9536 28.2869 88.1471 28.7235C88.1802 28.7963 88.2513 28.8443 88.3323 28.8443H89.3791C89.4486 28.8443 89.5147 28.8079 89.5511 28.7483C89.5875 28.6888 89.5908 28.6144 89.5594 28.5515L89.4651 28.3647V28.363Z" fill="white"/>
<path d="M101.564 20.9774C100.901 20.5689 100.145 20.1952 99.3181 19.8661C98.5061 19.5452 97.6908 19.2244 96.8954 18.9168C95.5426 18.3926 94.5338 17.8584 93.8971 17.3325C93.2836 16.8248 92.9859 16.2278 92.9859 15.5051C92.9859 14.713 93.3812 14.0813 94.1932 13.5719C95.0233 13.051 96.138 12.788 97.504 12.788C98.478 12.788 99.4223 12.9716 100.31 13.3321C101.193 13.691 101.875 14.1474 102.338 14.6882C102.409 14.7709 102.533 14.7824 102.617 14.7146L103.371 14.1061C103.413 14.073 103.441 14.0234 103.446 13.9688C103.451 13.9142 103.434 13.8613 103.401 13.82C102.765 13.051 101.903 12.449 100.838 12.0339C99.7812 11.6205 98.6583 11.4121 97.504 11.4121C95.8998 11.4121 94.509 11.771 93.3712 12.4771C92.202 13.2031 91.61 14.2218 91.61 15.5068C91.61 16.294 91.8233 16.9803 92.2467 17.5492C92.6585 18.1032 93.2307 18.5993 93.9484 19.026C94.6529 19.4444 95.4731 19.8379 96.386 20.1952L98.7757 21.1461C99.9482 21.5744 100.861 22.054 101.489 22.5716C102.095 23.071 102.389 23.7292 102.389 24.5809C102.389 25.4326 101.971 26.1536 101.112 26.6712C100.233 27.2004 99.0519 27.47 97.6032 27.47C96.5266 27.47 95.5873 27.3344 94.81 27.0665C94.0278 26.7986 93.396 26.5025 92.9363 26.19C92.4766 25.8774 92.1673 25.6294 92.0168 25.4491C91.9804 25.4061 91.9292 25.3797 91.8729 25.3763C91.8184 25.373 91.7621 25.3945 91.7225 25.4326L91.0163 26.1139C90.9386 26.1883 90.9336 26.3107 91.0031 26.3917C91.228 26.6514 91.615 26.9639 92.1855 27.3509C92.7494 27.7329 93.4887 28.0802 94.3866 28.3845C95.2863 28.6905 96.3678 28.8459 97.6015 28.8459C98.6897 28.8459 99.7084 28.6905 100.633 28.3862C101.571 28.0769 102.333 27.599 102.897 26.9673C103.472 26.3239 103.763 25.5219 103.763 24.5825C103.763 23.7507 103.563 23.0363 103.168 22.4608C102.779 21.8969 102.24 21.3991 101.562 20.9807L101.564 20.9774Z" fill="white"/>
<path d="M107.382 11.4104H106.408C106.296 11.4104 106.206 11.5007 106.206 11.6122V28.6424C106.206 28.7539 106.296 28.8442 106.408 28.8442H107.382C107.493 28.8442 107.584 28.7539 107.584 28.6424V11.6122C107.584 11.5007 107.493 11.4104 107.382 11.4104Z" fill="white"/>
<path d="M124.265 11.4104H109.669C109.558 11.4104 109.467 11.5014 109.467 11.6122V12.5846C109.467 12.6954 109.558 12.7863 109.669 12.7863H116.279V28.6408C116.279 28.7516 116.37 28.8425 116.481 28.8425H117.453C117.564 28.8425 117.655 28.7516 117.655 28.6408V12.7863H124.265C124.376 12.7863 124.467 12.6954 124.467 12.5846V11.6122C124.467 11.5014 124.376 11.4104 124.265 11.4104Z" fill="white"/>
<path d="M141.839 11.5229C141.805 11.4534 141.735 11.4104 141.657 11.4104H140.44C140.377 11.4104 140.319 11.4385 140.28 11.4881L133.726 19.9669L127.195 11.4898C127.157 11.4402 127.098 11.4104 127.035 11.4104H125.795C125.717 11.4104 125.647 11.4534 125.613 11.5229C125.578 11.5923 125.586 11.675 125.634 11.7345L133.036 21.3378V28.6408C133.036 28.7516 133.127 28.8425 133.238 28.8425H134.211C134.321 28.8425 134.412 28.7516 134.412 28.6408V21.3378L141.814 11.7345C141.861 11.6733 141.869 11.5907 141.836 11.5229H141.839Z" fill="white"/>
<path d="M20.7139 39.8449C31.6036 39.8449 40.4315 31.017 40.4315 20.1273C40.4315 9.23755 31.6036 0.409668 20.7139 0.409668C9.82416 0.409668 0.996277 9.23755 0.996277 20.1273C0.996277 31.017 9.82416 39.8449 20.7139 39.8449Z" fill="url(#paint0_linear_6888_2)"/>
<path d="M20.7139 37.9117C30.5359 37.9117 38.4983 29.9493 38.4983 20.1273C38.4983 10.3052 30.5359 2.3429 20.7139 2.3429C10.8918 2.3429 2.9295 10.3052 2.9295 20.1273C2.9295 29.9493 10.8918 37.9117 20.7139 37.9117Z" fill="#0E0E23"/>
<path d="M19.5364 30.1588C18.6384 30.1588 17.8165 29.6478 17.4213 28.8408L12.2368 18.2916C11.6629 17.1224 12.1442 15.7101 13.3134 15.1362C14.4826 14.5624 15.8949 15.0436 16.4687 16.2128L19.5364 22.4573L22.6041 16.2128C23.178 15.0436 24.5903 14.5624 25.7595 15.1362C26.9287 15.7101 27.4099 17.1224 26.8361 18.2916L21.6516 28.8408C21.2547 29.6478 20.4344 30.1588 19.5364 30.1588Z" fill="url(#paint1_linear_6888_2)"/>
<path d="M22.5992 24.9231C21.8914 24.9314 21.1604 24.5593 20.871 24.3261C20.231 23.8118 20.1119 23.5042 19.5364 22.4574L24.9624 11.4153C25.5362 10.2461 26.9485 9.76488 28.1177 10.3387C29.2869 10.9126 29.7682 12.3249 29.1943 13.4941L24.2165 23.6249C23.8064 24.4584 23.4492 24.9281 22.6008 24.9231H22.5992Z" fill="url(#paint2_linear_6888_2)"/>
<defs>
<linearGradient id="paint0_linear_6888_2" x1="4.11524" y1="30.9048" x2="37.1951" y2="9.42755" gradientUnits="userSpaceOnUse">
<stop stop-color="#2A4AFF"/>
<stop offset="0.08" stop-color="#285EFC"/>
<stop offset="0.24" stop-color="#2593F5"/>
<stop offset="0.46" stop-color="#20E9EA"/>
<stop offset="0.47" stop-color="#20EDEA"/>
<stop offset="0.52" stop-color="#2AE4E9"/>
<stop offset="0.61" stop-color="#45CBE9"/>
<stop offset="0.72" stop-color="#72A4E9"/>
<stop offset="0.85" stop-color="#B16EE8"/>
<stop offset="1" stop-color="#FF2AE8"/>
</linearGradient>
<linearGradient id="paint1_linear_6888_2" x1="23.8841" y1="24.0846" x2="14.9589" y2="16.1648" gradientUnits="userSpaceOnUse">
<stop stop-color="#20EDEA"/>
<stop offset="0.42" stop-color="#428AF9"/>
<stop offset="0.98" stop-color="#2A4AFF"/>
</linearGradient>
<linearGradient id="paint2_linear_6888_2" x1="21.2795" y1="24.0317" x2="28.0235" y2="10.7588" gradientUnits="userSpaceOnUse">
<stop stop-color="#3A003F"/>
<stop offset="0.09" stop-color="#660965"/>
<stop offset="0.19" stop-color="#8F1287"/>
<stop offset="0.29" stop-color="#B119A5"/>
<stop offset="0.4" stop-color="#CD1FBD"/>
<stop offset="0.51" stop-color="#E324D0"/>
<stop offset="0.64" stop-color="#F327DD"/>
<stop offset="0.79" stop-color="#FC29E5"/>
<stop offset="1" stop-color="#FF2AE8"/>
</linearGradient>
</defs>
</svg>
